<svg width="334" height="344" viewBox="0 0 334 344" fill="none" xmlns="http://www.w3.org/2000/svg">
<path d="M54.2143 149.427H161.486V160.433H54.2143V149.427ZM54.2143 108.601H256.825V119.608H54.2143V108.601ZM54.2143 67.7805H256.825V78.7851H54.2143V67.7805ZM6.45163 213.397L0.515625 218.327L86.8917 229.068C99.439 234.063 112.528 237.629 126.02 239.811C130.551 195.899 177.228 161.261 234.005 161.261C257.011 161.261 278.346 166.961 295.909 176.649C306.888 160.095 313.126 141.329 313.126 121.438C313.126 54.7565 243.406 0.503805 157.701 0.503805C71.995 0.503805 2.26763 54.7565 2.26763 121.438C2.26763 145.378 11.249 168.434 28.2596 188.325L28.1223 188.431L29.7843 190.192C27.8716 194.073 16.6263 204.931 6.45163 213.397Z" fill="#194237"/>
<path d="M134.517 246.829C134.517 289.108 179.157 323.503 234.005 323.503C246.133 323.503 258.06 321.792 269.454 318.429L271.875 317.717L299.77 343.496V304.263L301.626 302.931C321.873 288.423 333.485 267.971 333.485 246.829C333.485 204.553 288.844 170.155 234.005 170.155C179.157 170.155 134.517 204.553 134.517 246.829Z" fill="#FECA7E"/>
<path d="M256.825 78.7852V67.7805H54.2144V78.7852H256.825Z" fill="#FECA7E"/>
<path d="M256.825 119.608V108.601H54.2144V119.608H256.825Z" fill="#FECA7E"/>
<path d="M161.486 160.433V149.427H54.2144V160.433H161.486Z" fill="#FECA7E"/>
</svg>
