<svg width="210" height="134" viewBox="0 0 210 134" fill="none" xmlns="http://www.w3.org/2000/svg">
<g clip-path="url(#clip0_33_85)">
<path d="M46.2926 120.863H37.67V125.118H44.768V126.554H37.67V131.96H46.2926V133.384H35.8682V119.435H46.2926V120.863Z" fill="#194237"/>
<path d="M66.2716 133.384H63.8314L58.7494 126.995L53.6716 133.384H51.2314L57.3424 126.244L51.5758 119.448H53.995L58.7494 125.433L63.5038 119.448H65.9272L60.1816 126.231L66.2716 133.384Z" fill="#194237"/>
<path d="M83.181 123.53C83.1848 124.026 83.1097 124.52 82.9584 124.992C82.7991 125.457 82.5477 125.886 82.2192 126.252C81.8225 126.678 81.3239 126.996 80.7702 127.176C80.0528 127.414 79.2999 127.527 78.5442 127.512H73.542V133.392H71.7402V119.435H78.5442C79.7656 119.377 80.9646 119.778 81.9042 120.561C82.3233 120.931 82.6552 121.389 82.876 121.902C83.0968 122.416 83.201 122.972 83.181 123.53ZM81.3792 123.53C81.3902 123.17 81.3227 122.812 81.1812 122.48C81.0398 122.149 80.8279 121.852 80.5602 121.611C79.9619 121.093 79.1874 120.826 78.3972 120.863H73.542V126.151H78.6618C79.0343 126.176 79.4078 126.121 79.757 125.989C80.1063 125.857 80.4232 125.652 80.6862 125.387C81.1478 124.88 81.3961 124.215 81.3792 123.53Z" fill="#194237"/>
<path d="M91.0811 131.96H99.7037V133.384H89.2793V119.435H91.0811V131.96Z" fill="#194237"/>
<path d="M111.069 119.15C112.049 119.149 113.022 119.321 113.942 119.658C114.826 119.98 115.646 120.458 116.361 121.069C117.086 121.699 117.66 122.484 118.041 123.367C118.446 124.33 118.654 125.365 118.654 126.409C118.654 127.454 118.446 128.489 118.041 129.452C117.662 130.335 117.087 131.121 116.361 131.75C115.649 132.363 114.833 132.842 113.95 133.165C112.091 133.845 110.051 133.845 108.192 133.165C107.305 132.839 106.485 132.354 105.773 131.733C105.051 131.1 104.478 130.315 104.093 129.436C103.624 128.351 103.414 127.173 103.479 125.994C103.544 124.814 103.882 123.666 104.467 122.64C105.12 121.545 106.067 120.654 107.201 120.07C108.395 119.449 109.724 119.133 111.069 119.15ZM108.1 131.397C108.996 131.93 110.02 132.212 111.063 132.212C112.106 132.212 113.129 131.93 114.026 131.397C114.904 130.886 115.629 130.149 116.126 129.263C116.618 128.389 116.874 127.402 116.869 126.399C116.878 125.394 116.63 124.403 116.147 123.522C115.758 122.847 115.239 122.256 114.62 121.784C114.001 121.311 113.295 120.966 112.541 120.769C111.788 120.571 111.003 120.526 110.232 120.634C109.461 120.743 108.719 121.003 108.049 121.401C107.188 121.92 106.483 122.661 106.008 123.547C105.531 124.429 105.284 125.417 105.29 126.42C105.286 127.415 105.539 128.395 106.025 129.263C106.516 130.146 107.232 130.882 108.1 131.397Z" fill="#194237"/>
<path d="M133.409 128.869L136.177 133.384H134.077L131.431 129.053C131.162 128.556 130.767 128.139 130.284 127.844C129.778 127.615 129.227 127.504 128.672 127.52H126.114V133.4H124.312V119.435H131.116C132.336 119.379 133.533 119.777 134.476 120.553C134.897 120.923 135.23 121.382 135.452 121.897C135.673 122.412 135.778 122.97 135.757 123.53C135.759 123.97 135.701 124.408 135.585 124.832C135.462 125.249 135.271 125.642 135.018 125.996C134.726 126.392 134.344 126.715 133.905 126.937C133.381 127.206 132.811 127.377 132.225 127.441C132.697 127.847 133.097 128.33 133.409 128.869ZM131.217 126.151C131.589 126.177 131.963 126.121 132.311 125.989C132.66 125.856 132.976 125.649 133.237 125.383C133.699 124.878 133.949 124.215 133.934 123.53C133.943 123.169 133.872 122.809 133.727 122.478C133.582 122.146 133.366 121.85 133.094 121.611C132.495 121.094 131.721 120.827 130.931 120.863H126.097V126.151H131.217Z" fill="#194237"/>
<path d="M152.662 120.863H144.039V125.118H151.137V126.554H144.039V131.96H152.662V133.384H142.237V119.435H152.662V120.863Z" fill="#194237"/>
<path d="M168.121 128.869L170.885 133.384H168.785L166.135 129.053C165.866 128.556 165.47 128.139 164.988 127.844C164.484 127.615 163.933 127.504 163.38 127.52H160.818V133.4H159.007V119.435H165.807C167.027 119.378 168.224 119.776 169.167 120.553C169.584 120.925 169.914 121.385 170.132 121.9C170.349 122.415 170.45 122.972 170.427 123.53C170.429 123.97 170.371 124.408 170.255 124.832C170.136 125.251 169.944 125.644 169.688 125.996C169.397 126.393 169.015 126.716 168.575 126.937C168.051 127.207 167.481 127.378 166.895 127.441C167.382 127.843 167.797 128.326 168.121 128.869ZM165.925 126.151C166.298 126.177 166.672 126.122 167.021 125.989C167.371 125.856 167.687 125.649 167.949 125.383C168.409 124.877 168.657 124.214 168.642 123.53C168.653 123.171 168.586 122.813 168.445 122.481C168.304 122.15 168.094 121.853 167.827 121.611C167.227 121.094 166.451 120.827 165.66 120.863H160.805V126.151H165.925Z" fill="#194237"/>
<path d="M145.61 22.26C142.985 16.8798 138.47 15.8046 135.786 15.6786C135.681 15.3426 135.576 15.036 135.459 14.7504C132.225 6.65698 122.397 6.69478 117.974 7.15678C115.513 2.40658 111.153 -2.28882e-05 105 -2.28882e-05C98.8473 -2.28882e-05 94.5003 2.40658 92.0265 7.13998C87.6039 6.67798 77.7759 6.63598 74.5377 14.7336C74.4243 15.0234 74.3151 15.3342 74.2143 15.6618C71.5221 15.7962 67.0197 16.8714 64.3821 22.26C58.7919 33.7008 77.2215 56.8806 78.0111 57.8634C78.0603 57.9257 78.125 57.974 78.1987 58.0035C78.2724 58.033 78.3525 58.0426 78.4311 58.0314C93.4083 55.671 97.2681 55.6878 104.291 55.7214H105.66C112.682 55.6878 116.542 55.671 131.519 58.0314H131.595C131.664 58.0313 131.732 58.0158 131.795 57.986C131.857 57.9562 131.912 57.9129 131.956 57.8592C132.771 56.8722 151.2 33.6924 145.61 22.26ZM131.162 49.98C130.381 49.5978 130.595 48.1908 130.797 47.3844C131.918 42.8358 132.897 37.9848 132.897 37.9344C132.915 37.8354 132.902 37.7329 132.858 37.6422C132.814 37.5515 132.742 37.4772 132.653 37.4304C132.582 37.3931 132.502 37.3757 132.422 37.38C132.298 37.3809 132.178 37.4306 132.09 37.5186C132.036 37.5732 126.74 42.9786 123.917 45.6078C122.178 47.2374 120.498 47.8884 119.419 47.3466C118.554 46.9266 118.138 45.7254 118.314 44.1798C119.348 35.1456 119.73 30.807 119.73 30.765C119.74 30.6538 119.71 30.5427 119.645 30.4517C119.581 30.3608 119.485 30.2961 119.377 30.2694C119.267 30.2448 119.153 30.2595 119.053 30.311C118.953 30.3624 118.875 30.4473 118.831 30.5508C118.768 30.7062 112.304 46.3806 104.971 46.3806C97.6377 46.3806 91.1949 30.7062 91.1109 30.5508C91.0681 30.4476 90.9904 30.3629 90.8913 30.3114C90.7922 30.2599 90.6781 30.2451 90.5691 30.2694C90.4599 30.2952 90.3637 30.3595 90.2982 30.4506C90.2326 30.5416 90.202 30.6532 90.2121 30.765C90.2121 30.807 90.5943 35.1456 91.6275 44.1798C91.8039 45.7254 91.3881 46.9098 90.5187 47.3466C89.4477 47.8842 87.7677 47.2374 86.0247 45.6078C83.2023 42.966 77.9061 37.5732 77.8515 37.5186C77.7804 37.4479 77.6885 37.4019 77.5893 37.3872C77.4901 37.3724 77.3888 37.3898 77.3002 37.4367C77.2115 37.4836 77.1402 37.5576 77.0966 37.6479C77.053 37.7381 77.0394 37.84 77.0577 37.9386C77.0577 37.989 78.0405 42.84 79.1577 47.3886C79.3593 48.195 79.5777 49.602 78.7923 49.9842C77.8011 50.4714 75.7347 49.9212 73.7103 47.8842C69.9933 44.1294 66.1797 36.372 65.9361 28.6272C65.7807 23.5872 69.6111 20.265 73.4961 19.5048C73.3071 22.4952 73.8153 25.4814 75.2727 30.2022C75.3096 30.3176 75.3896 30.4143 75.496 30.4722C75.6024 30.5301 75.727 30.5447 75.8439 30.513C75.9607 30.4823 76.0608 30.407 76.1229 30.3034C76.1849 30.1998 76.2038 30.076 76.1757 29.9586C76.1547 29.8578 73.9077 19.803 78.8175 14.2506C81.3375 11.4114 85.2981 10.2018 90.6279 10.6512C88.8513 17.1192 90.2919 23.3016 90.3549 23.5704C90.3852 23.6807 90.4546 23.7762 90.5502 23.839C90.6458 23.9018 90.7609 23.9277 90.8742 23.9117C90.9874 23.8958 91.091 23.8391 91.1655 23.7523C91.24 23.6655 91.2803 23.5545 91.2789 23.4402C90.9597 16.6236 92.4507 11.5206 95.7099 8.26138C99.6495 4.33018 104.883 4.53598 104.95 4.54018C108.439 4.64523 111.758 6.06787 114.24 8.52178C117.508 11.7936 118.982 16.8 118.68 23.4276C118.673 23.5441 118.711 23.6588 118.785 23.749C118.859 23.8392 118.964 23.8984 119.08 23.9147C119.195 23.9311 119.313 23.9035 119.409 23.8374C119.505 23.7713 119.573 23.6715 119.6 23.5578C119.663 23.289 121.107 17.1066 119.327 10.6386C124.652 10.1892 128.63 11.3988 131.137 14.238C136.047 19.7904 133.8 29.8452 133.779 29.946C133.751 30.0634 133.77 30.1872 133.832 30.2908C133.894 30.3944 133.994 30.4697 134.111 30.5004C134.227 30.5321 134.352 30.5175 134.458 30.4596C134.565 30.4017 134.645 30.305 134.682 30.1896C136.139 25.473 136.647 22.4868 136.458 19.4922C140.335 20.2524 144.165 23.583 144.018 28.6146C143.762 36.3594 139.982 42.924 136.366 47.88C134.673 50.2026 132.145 50.4672 131.162 49.98Z" fill="#194237"/>
<path d="M129.957 61.2906C115.131 59.4846 111.922 59.3166 104.652 59.346C97.8476 59.3082 95.3822 59.5392 81.7406 60.8076L80.0186 60.9672C79.6477 61.0017 79.3056 61.1822 79.0678 61.4689C78.8299 61.7556 78.7157 62.1251 78.7502 62.496C78.7847 62.8669 78.9652 63.2089 79.2519 63.4468C79.5386 63.6847 79.9081 63.7989 80.279 63.7644L82.001 63.6048C95.525 62.3448 97.961 62.118 104.652 62.1516C111.342 62.1852 114.194 62.202 129.616 64.0794C129.672 64.0836 129.728 64.0836 129.784 64.0794C130.14 64.0756 130.481 63.9373 130.739 63.6923C130.996 63.4473 131.152 63.1137 131.174 62.7588C131.195 62.4039 131.082 62.0538 130.856 61.7791C130.63 61.5044 130.309 61.3253 129.957 61.278V61.2906Z" fill="#194237"/>
<path d="M18.7024 91.3836H5.52698V75.6672H0.121582V108.381H5.52698V92.6646H18.7024V108.381H24.0616V75.6672H18.7024V91.3836Z" fill="#194237"/>
<path d="M33.3561 75.6672H27.9507V108.381H33.3561V75.6672Z" fill="#194237"/>
<path d="M54.823 93.576H58.4685V103.937C56.8203 104.851 54.96 105.313 53.0758 105.277C45.8098 105.277 41.3158 99.7836 41.3158 90.9384C41.3158 82.446 45.5493 76.5114 51.6142 76.5114C55.7931 76.5114 58.0611 79.3002 58.3551 84.798L58.4097 85.7892L63.6975 80.1276L63.4287 79.8378C60.6021 76.8264 56.608 75.2178 51.8746 75.2178C42.1768 75.2178 35.9146 81.7908 35.9146 91.9632C35.9146 102.043 42.1221 108.843 51.358 108.843C54.8482 108.843 57.7419 107.814 59.9637 105.781L62.8323 108.364H63.8949V92.2782H54.823V93.576Z" fill="#194237"/>
<path d="M85.4275 75.6672V91.3836H72.2521V75.6672H66.8467V108.381H72.2521V92.6646H85.4275V108.381H90.7867V75.6672H85.4275Z" fill="#194237"/>
<path d="M94.3823 108.389H99.8927V94.3404H111.859V92.8284H99.8927V77.6076H116.332V76.0956H94.3823V108.389Z" fill="#194237"/>
<path d="M150.12 76.0956L137.411 106.877H122.421V92.9754H134.382V91.5054H122.421V77.6076H138.855V76.0956H116.906V108.389H138.855V107.398L142.005 99.7038H155.101L158.675 108.389H164.555L151.535 76.0956H150.12ZM142.648 98.1918L148.591 83.7396L154.5 98.1918H142.648Z" fill="#194237"/>
<path d="M176.942 89.1282C173.006 86.6586 169.293 84.3276 169.293 81.2154C169.293 78.813 171.393 77.1372 174.388 77.1372C178.37 77.1372 180.864 80.1318 181.066 85.1508L181.112 86.4108L186.572 80.5854L186.236 80.2326C183.557 77.3808 179.26 75.6798 174.745 75.6798C168.714 75.6672 164.342 79.002 164.342 83.58C164.342 88.2378 168.962 90.9846 173.443 93.66C177.74 96.2094 181.801 98.6202 181.801 102.459C181.801 105.399 179.462 107.348 175.98 107.348C171.612 107.348 168.907 104.353 168.752 99.3342L168.71 98.0742L163.25 103.954L163.59 104.311C166.303 107.159 170.839 108.86 175.719 108.86C182.439 108.86 186.799 105.63 186.799 100.632C186.799 95.3064 181.562 92.0262 176.942 89.1282Z" fill="#194237"/>
<path d="M185.291 76.0956V77.6076H194.825V108.389H200.34V77.6076H209.878V76.0956H185.291Z" fill="#194237"/>
</g>
<defs>
<clipPath id="clip0_33_85">
<rect width="209.756" height="133.669" fill="white" transform="translate(0.121826)"/>
</clipPath>
</defs>
</svg>
